#N canvas 232 75 738 475 10;
#X obj 55 68 inlet~;
#X obj 534 199 osc~ 400;
#X obj 533 246 throw~;
#X obj 600 233 catch~;
#X obj 135 331 pan~;
#X obj 135 357 dac~;
#X obj 163 273 scale.linear 0 1 -45 45;
#X obj 166 253 hsl 128 15 0 1 0 0 empty empty empty -2 -8 0 10 -262144
-1 -1 0 1;
#X obj 163 228 line;
#X msg 162 205 \$1 \$2;
#X obj 157 131 random 100;
#X obj 160 155 / 100;
#X obj 228 129 random 10000;
#X obj 161 180 pack f f;
#X obj 176 80 bng 15 250 50 0 empty empty empty 17 7 0 10 -262144 -1
-1;
#X obj 602 266 *~ 0.3;
#X obj 168 42 inlet;
#X obj 407 34 inlet;
#X obj 409 76 tgl 15 0 empty empty empty 17 7 0 10 -262144 -1 -1 0
1;
#X obj 412 118 metro;
#X obj 483 94 sel 1;
#X obj 483 116 bng 15 250 50 0 empty empty empty 17 7 0 10 -262144
-1 -1;
#X obj 483 142 random 5000;
#X connect 0 0 4 0;
#X connect 1 0 2 0;
#X connect 4 0 5 0;
#X connect 4 1 5 1;
#X connect 6 0 4 1;
#X connect 7 0 6 0;
#X connect 8 0 7 0;
#X connect 9 0 8 0;
#X connect 10 0 11 0;
#X connect 11 0 13 0;
#X connect 12 0 13 1;
#X connect 13 0 9 0;
#X connect 14 0 10 0;
#X connect 14 0 12 0;
#X connect 15 0 4 0;
#X connect 16 0 14 0;
#X connect 17 0 18 0;
#X connect 18 0 19 0;
#X connect 18 0 20 0;
#X connect 19 0 21 0;
#X connect 19 0 14 0;
#X connect 20 0 21 0;
#X connect 21 0 22 0;
#X connect 22 0 19 1;
