#N canvas 255 98 592 552 10;
#X declare -path ~/Desktop/a_futuro/sinc_abs;
#X obj 80 239 netsend;
#X msg 80 158 disconnect;
#X floatatom 80 266 0 0 0 0 - - -;
#X msg 56 131 connect 192.168.43.72 3000;
#X obj 278 41 sinc-audioin;
#X obj 171 484 declare -path ~/Desktop/a_futuro/sinc_abs;
#X obj 276 207 sinc-audioanalise;
#X floatatom 368 383 5 0 0 0 - - -;
#X floatatom 286 386 5 0 0 0 - - -;
#X obj 270 428 pack f f;
#X obj 78 393 prepend set;
#X msg 77 423 10 10;
#X msg 89 219 send notes \$1 \$2;
#X obj 363 427 scale.linear 0 0.02 0 127;
#X obj 346 454 int;
#X connect 0 0 2 0;
#X connect 1 0 0 0;
#X connect 3 0 0 0;
#X connect 4 0 6 0;
#X connect 6 2 8 0;
#X connect 6 5 7 0;
#X connect 7 0 9 0;
#X connect 8 0 13 0;
#X connect 9 0 10 0;
#X connect 9 0 12 0;
#X connect 10 0 11 0;
#X connect 12 0 0 0;
#X connect 13 0 14 0;
#X connect 14 0 9 1;
