#N canvas 151 282 1274 666 10;
#X declare -path ~/Desktop/a_futuro/sinc_abs;
#X declare -path ~/Desktop/a_futuro/libs/DIY2;
#X declare -path ~/Desktop/a_futuro/libs/pdmtl;
#X obj -8 39 soundfiler;
#X obj 248 293 * 44100;
#X floatatom 258 274 5 0 0 0 - - -;
#X obj 248 316 s grainpitch;
#X obj 251 256 hsl 64 12 0.1 2 0 0 empty empty grainpitch 7 6 1 8 -262144
-1 -1 4642 1;
#X msg -8 16 read -resize \$1 source-array;
#X floatatom 182 274 5 0 0 0 - - -;
#X obj 175 256 hsl 64 12 1 2000 0 0 empty empty graindur 7 6 1 8 -262144
-1 -1 3460 1;
#X obj 172 316 s graindur;
#X floatatom 53 216 5 0 0 0 - - -;
#X obj 46 198 hsl 64 12 0 1 0 0 empty empty grainstart 7 6 1 8 -262144
-1 -1 4788 1;
#X obj 57 305 s grainstart;
#X obj -8 61 s filesize;
#X obj 89 240 r filesize;
#X obj 73 262 f;
#X obj 43 239 t f b;
#X obj 57 283 *;
#X obj 666 23 catch~ bus;
#X obj 377 358 grainvoice;
#X obj -7 88 loadbang;
#N canvas 689 247 274 245 make-grain-env 0;
#X obj 16 42 t b b;
#X obj 16 106 f;
#X obj 44 106 + 1;
#X msg 54 63 0;
#X obj 16 85 until;
#X obj 16 127 t f f;
#X obj 16 20 inlet;
#X obj 16 188 tabwrite grain-env;
#X msg 16 63 2048;
#X obj 16 148 expr ($f1-1024)/1024;
#X obj 16 168 expr 0.5+(cos($f1 * 3.141)/2);
#X obj 73 16 bng 15 250 50 0 empty empty empty 17 7 0 10 -262144 -1
-1;
#X connect 0 0 8 0;
#X connect 0 1 3 0;
#X connect 1 0 2 0;
#X connect 1 0 5 0;
#X connect 2 0 1 1;
#X connect 3 0 1 1;
#X connect 4 0 1 0;
#X connect 5 0 9 0;
#X connect 5 1 7 1;
#X connect 6 0 0 0;
#X connect 8 0 4 0;
#X connect 9 0 10 0;
#X connect 10 0 7 0;
#X connect 11 0 0 0;
#X restore -7 109 pd make-grain-env;
#X obj 454 309 route 0 1 2 3;
#X obj 475 131 f;
#X obj 503 131 + 1;
#X obj 475 156 mod 4;
#X obj 475 180 t f b b;
#X obj 454 287 pack f f f;
#X obj 475 107 metro 100;
#X obj 475 87 tgl 15 0 empty empty empty 0 -6 0 8 -262144 -1 -1 1 1
;
#X obj 519 267 + 1;
#X obj 519 246 / 10000;
#X obj 519 225 random 200;
#X msg 377 337 \$1 \$2 1;
#X msg 446 335 \$1 \$2 1;
#X msg 530 335 \$1 \$2 1;
#X msg 609 334 \$1 \$2 1;
#X obj 486 205 random 10000;
#X obj 665 267 rev3~ 95 90;
#X obj 501 -3 r graindur;
#X floatatom 347 274 5 0 0 0 - - -;
#X obj 340 256 hsl 64 12 1 2 0 0 empty empty overlap 7 6 1 8 -262144
-1 -1 5418 1;
#X obj 533 19 r overlap;
#X obj 533 86 /;
#X obj 533 62 t b f;
#X obj 337 316 s overlap;
#X obj 501 19 / 2;
#X obj 446 356 grainvoice;
#X obj 530 356 grainvoice;
#X obj 609 355 grainvoice;
#X obj 18 387 tabplay~ source-array;
#X obj 14 430 dac~;
#X obj 20 354 bng 15 250 50 0 empty empty empty 17 7 0 10 -262144 -1
-1;
#X obj 71 630 tabwrite~ source-array;
#X obj 77 558 adc~;
#X msg 113 572 bang;
#X msg 123 592 stop;
#X floatatom 184 451 7 0 0 0 - - -;
#X msg 184 473 resize \$1;
#X obj 184 499 s source-array;
#X obj 693 90 sinc-audioanalise;
#X obj 274 433 keyname;
#X obj 341 565 sel Control_L Space Control_R Delete;
#X obj 341 499 spigot;
#X obj 764 36 tgl 40 0 empty empty empty 17 7 0 10 -258113 -1 -1 0
1;
#X obj 430 601 bng 15 250 50 0 empty empty empty 17 7 0 10 -262144
-1 -1;
#X obj 519 602 bng 15 250 50 0 empty empty empty 17 7 0 10 -262144
-1 -1;
#X obj 608 600 bng 15 250 50 0 empty empty empty 17 7 0 10 -262144
-1 -1;
#X obj 341 530 spigot;
#X obj 341 465 t s b b b b b b b b b;
#X obj 311 592 bng 15 250 50 0 empty empty empty 17 7 0 10 -262144
-1 -1;
#X obj 467 534 switch~;
#X obj 467 509 tgl 15 0 empty empty empty 17 7 0 10 -262144 -1 -1 0
1;
#X text 532 461 Control_R = prox sample;
#X text 532 493 Delete = ant sample;
#X obj 311 612 sinc-alternate;
#X obj -4 506 metro 3000;
#X obj -4 487 tgl 15 0 empty empty empty 17 7 0 10 -262144 -1 -1 1
1;
#X obj -6 537 s bang_rnd;
#X obj -8 462 loadbang;
#X obj 44 157 random 100;
#X obj 44 177 / 100;
#X obj 45 135 r bang_rnd;
#X obj 172 221 random 2000;
#X obj 247 213 random 100;
#X obj 247 233 / 50;
#X obj 338 187 random 100;
#X obj 338 207 / 100;
#X obj 336 232 + 1;
#X obj 311 639 bng 15 250 50 0 empty empty empty 17 7 0 10 -262144
-1 -1;
#X obj 393 639 bng 15 250 50 0 empty empty empty 17 7 0 10 -262144
-1 -1;
#X obj 982 327 mono-specdelay;
#X obj 930 610 *~;
#X obj 946 582 line~;
#X msg 893 562 1 50;
#X msg 946 559 0 50;
#X obj 1080 610 *~;
#X obj 1096 582 line~;
#X obj 1015 530 sinc-alternate;
#X obj 1015 511 bng 15 250 50 0 empty empty empty 17 7 0 10 -262144
-1 -1;
#X msg 1015 552 1 50;
#X msg 1096 559 0 50;
#N canvas 587 265 450 300 tables 0;
#N canvas 0 22 450 300 (subpatch) 0;
#X array grain-env 2048 float 0;
#X coords 0 1 2047 -1 100 100 1;
#X restore 140 59 graph;
#N canvas 0 22 450 300 (subpatch) 0;
#X array source-array 100000 float 2;
#X coords 0 1 100000 -1 100 100 1;
#X restore 276 24 graph;
#X restore 387 159 pd tables;
#X obj 662 68 *~ 3;
#X msg 1009 266 0 1;
#X msg 1035 242 1 0.9;
#X msg 1079 253 2 0.85;
#X msg 1135 248 3 0.9;
#X msg 1150 272 4 0.9;
#X msg 1197 263 5 0.9;
#X msg 1081 284 6 0.8;
#X msg 1127 296 7 0.3;
#X obj 1101 204 loadbang;
#X obj 179 87 declare -path ~/Desktop/a_futuro/sinc_abs;
#X obj 173 112 declare -path ~/Desktop/a_futuro/libs/DIY2;
#X obj 178 139 declare -path ~/Desktop/a_futuro/libs/pdmtl;
#X obj 906 100 sinc-audioin;
#X msg 1173 298 8 1;
#X obj 790 375 autopan;
#X obj 828 337 tgl 15 0 empty empty empty 17 7 0 10 -262144 -1 -1 0
1;
#X obj 197 14 comment 169 36 Courier ? 0 0 0 0 eimas 2;
#X obj 269 56 comment 0 12 Courier ? 0 0 0 0 figocris@gmail.com;
#X text 837 16 Control_L = grava;
#X text 840 46 Space = liga specdelay;
#X obj 764 8 r dois;
#X connect 0 0 12 0;
#X connect 1 0 3 0;
#X connect 4 0 2 0;
#X connect 4 0 1 0;
#X connect 5 0 0 0;
#X connect 7 0 6 0;
#X connect 7 0 8 0;
#X connect 10 0 9 0;
#X connect 10 0 15 0;
#X connect 13 0 14 1;
#X connect 14 0 16 1;
#X connect 15 0 16 0;
#X connect 15 1 14 0;
#X connect 16 0 11 0;
#X connect 17 0 59 0;
#X connect 17 0 102 0;
#X connect 19 0 20 0;
#X connect 21 0 32 0;
#X connect 21 1 33 0;
#X connect 21 2 34 0;
#X connect 21 3 35 0;
#X connect 22 0 23 0;
#X connect 22 0 24 0;
#X connect 23 0 22 1;
#X connect 24 0 25 0;
#X connect 25 0 26 0;
#X connect 25 1 36 0;
#X connect 25 2 31 0;
#X connect 26 0 21 0;
#X connect 27 0 22 0;
#X connect 28 0 27 0;
#X connect 29 0 26 2;
#X connect 30 0 29 0;
#X connect 31 0 30 0;
#X connect 32 0 18 0;
#X connect 33 0 46 0;
#X connect 34 0 47 0;
#X connect 35 0 48 0;
#X connect 36 0 26 1;
#X connect 37 0 117 0;
#X connect 38 0 45 0;
#X connect 40 0 39 0;
#X connect 40 0 44 0;
#X connect 41 0 43 0;
#X connect 42 0 27 1;
#X connect 43 0 42 0;
#X connect 43 1 42 1;
#X connect 45 0 42 0;
#X connect 49 0 50 0;
#X connect 49 0 50 1;
#X connect 51 0 49 0;
#X connect 53 1 52 0;
#X connect 54 0 52 0;
#X connect 55 0 52 0;
#X connect 56 0 57 0;
#X connect 57 0 58 0;
#X connect 60 0 67 1;
#X connect 60 1 68 0;
#X connect 61 0 69 0;
#X connect 61 1 64 0;
#X connect 61 2 65 0;
#X connect 61 3 66 0;
#X connect 62 0 67 0;
#X connect 63 0 62 1;
#X connect 63 0 71 0;
#X connect 64 0 98 0;
#X connect 67 0 61 0;
#X connect 68 0 62 0;
#X connect 69 0 74 0;
#X connect 71 0 70 0;
#X connect 74 0 88 0;
#X connect 74 1 89 0;
#X connect 75 0 77 0;
#X connect 76 0 75 0;
#X connect 78 0 76 0;
#X connect 79 0 80 0;
#X connect 80 0 10 0;
#X connect 81 0 79 0;
#X connect 81 0 82 0;
#X connect 81 0 83 0;
#X connect 81 0 85 0;
#X connect 82 0 7 0;
#X connect 83 0 84 0;
#X connect 84 0 4 0;
#X connect 85 0 86 0;
#X connect 86 0 87 0;
#X connect 87 0 40 0;
#X connect 88 0 54 0;
#X connect 89 0 55 0;
#X connect 90 0 95 0;
#X connect 91 0 117 0;
#X connect 92 0 91 1;
#X connect 93 0 92 0;
#X connect 94 0 92 0;
#X connect 95 0 117 0;
#X connect 96 0 95 1;
#X connect 97 0 99 0;
#X connect 97 0 94 0;
#X connect 97 1 100 0;
#X connect 97 1 93 0;
#X connect 98 0 97 0;
#X connect 99 0 96 0;
#X connect 100 0 96 0;
#X connect 102 0 37 0;
#X connect 103 0 90 1;
#X connect 104 0 90 1;
#X connect 105 0 90 1;
#X connect 106 0 90 1;
#X connect 107 0 90 1;
#X connect 108 0 90 1;
#X connect 109 0 90 1;
#X connect 110 0 90 1;
#X connect 111 0 103 0;
#X connect 111 0 104 0;
#X connect 111 0 105 0;
#X connect 111 0 109 0;
#X connect 111 0 106 0;
#X connect 111 0 110 0;
#X connect 111 0 107 0;
#X connect 111 0 108 0;
#X connect 111 0 116 0;
#X connect 115 0 90 0;
#X connect 115 0 91 0;
#X connect 116 0 90 1;
#X connect 118 0 117 2;
#X connect 123 0 63 0;
