#N canvas 147 22 1146 709 10;
#X declare -path ~/Desktop/a_futuro/libs/rj;
#X declare -path ~/Desktop/a_futuro/sinc_abs;
#X declare -path ~/Desktop/a_futuro/libs/DIY2;
#X declare -path ~/Desktop/a_futuro/libs/pdmtl;
#X obj 698 438 *~;
#X obj 713 393 line~;
#X obj 376 248 receive nota_in;
#X obj 421 224 receive reset;
#X obj 515 221 receive pausa;
#X obj 562 241 receive amp;
#X obj 648 240 receive~ audioin;
#X obj 376 275 sinc-gera_sintese;
#X obj 62 245 sinc-audioanalise;
#X obj 170 427 s nota_in;
#X obj 143 459 s pausa;
#X obj 116 484 s amp;
#X obj 84 222 s~ audioin;
#X obj 215 470 bng 15 250 50 0 empty empty empty 17 7 0 10 -262144
-1 -1;
#X obj 286 435 random 127;
#X obj 286 460 / 127;
#X obj 286 365 bng 15 250 50 0 empty empty empty 17 7 0 10 -262144
-1 -1;
#X obj 286 337 bonk~;
#X msg 286 484 0 \$1;
#X obj 366 446 random 127;
#X obj 366 471 / 127;
#X msg 368 491 1 \$1;
#X obj 243 536 mono-vibrato /key;
#X obj 456 447 random 127;
#X obj 456 472 / 127;
#X msg 456 494 2 \$1;
#X obj 242 296 r~ audioin;
#X obj 627 517 *~;
#X obj 62 -36 comment 0 36 Courier ? 0 0 0 0 eimas 4;
#X obj 139 0 comment 0 12 Courier ? 0 0 0 0 figocris@gmail.com;
#X obj 269 45 keyname;
#X obj 315 105 spigot;
#X obj 372 23 tgl 40 0 empty empty empty 17 7 0 10 -258113 -1 -1 0
1;
#X obj 368 199 bng 15 250 50 0 empty empty empty 17 7 0 10 -262144
-1 -1;
#X obj 421 196 bng 15 250 50 0 empty empty empty 17 7 0 10 -262144
-1 -1;
#X obj 478 193 bng 15 250 50 0 empty empty empty 17 7 0 10 -262144
-1 -1;
#X obj 315 136 spigot;
#X obj 315 71 t s b b b b b b b b b;
#X obj 315 204 bng 15 250 50 0 empty empty empty 17 7 0 10 -262144
-1 -1;
#X obj 441 140 switch~;
#X obj 441 115 tgl 15 0 empty empty empty 17 7 0 10 -262144 -1 -1 0
1;
#X text 498 24 Delete = liga efeito;
#X obj 315 224 counter 7;
#X obj 632 305 sinc-alternate;
#X text 497 -19 Control_L = sel cada sintese;
#X obj 632 279 bng 15 250 50 0 empty empty empty 17 7 0 10 -262144
-1 -1;
#X text 500 3 Space = volume sintetizadores;
#X msg 656 345 1 50;
#X msg 713 370 0 50;
#X obj 643 487 line~;
#X obj 562 432 sinc-alternate;
#X obj 562 409 bng 15 250 50 0 empty empty empty 17 7 0 10 -262144
-1 -1;
#X msg 562 458 1 50;
#X msg 643 458 0 50;
#X obj 838 488 *~;
#X obj 853 443 line~;
#X obj 772 355 sinc-alternate;
#X obj 772 329 bng 15 250 50 0 empty empty empty 17 7 0 10 -262144
-1 -1;
#X msg 796 395 1 50;
#X msg 853 420 0 50;
#X obj 796 554 *~ 0.6;
#X obj 618 135 declare -path ~/Desktop/a_futuro/libs/rj;
#X obj 618 160 declare -path ~/Desktop/a_futuro/sinc_abs;
#X obj 618 185 declare -path ~/Desktop/a_futuro/libs/DIY2;
#X obj 795 534 fx.wahwah~;
#X obj 617 208 declare -path ~/Desktop/a_futuro/libs/pdmtl;
#X obj 60 24 sinc-audioin;
#X obj 911 314 sinc-sample;
#X obj 315 171 sel Control_L Space ?? .;
#X obj 892 63 autopan;
#X obj 934 31 tgl 15 0 empty empty empty 17 7 0 10 -262144 -1 -1 0
1;
#X obj 675 593 throw~ sint;
#X obj 886 4 catch~ sint;
#X obj 548 592 throw~ efx;
#X obj 982 133 autopan;
#X obj 1024 101 tgl 15 0 empty empty empty 17 7 0 10 -262144 -1 -1
0 1;
#X obj 976 74 catch~ efx;
#X floatatom 58 526 7 0 0 0 - - -;
#X obj 58 569 moses 0.3;
#X floatatom 54 606 5 0 0 0 - - -;
#X floatatom 110 609 5 0 0 0 - - -;
#X floatatom 162 578 5 0 0 0 - - -;
#X obj 456 584 onebang;
#X obj 454 606 bng 15 250 50 0 empty empty empty 17 7 0 10 -262144
-1 -1;
#X obj 285 392 bucket 3;
#X obj 285 415 bng 15 250 50 0 empty empty empty 17 7 0 10 -262144
-1 -1;
#X obj 365 425 bng 15 250 50 0 empty empty empty 17 7 0 10 -262144
-1 -1;
#X obj 453 425 bng 15 250 50 0 empty empty empty 17 7 0 10 -262144
-1 -1;
#X obj 372 -5 r quatro;
#X connect 0 0 71 0;
#X connect 1 0 0 1;
#X connect 2 0 7 0;
#X connect 3 0 7 1;
#X connect 4 0 7 4;
#X connect 5 0 7 5;
#X connect 6 0 7 6;
#X connect 6 0 54 0;
#X connect 7 1 0 0;
#X connect 8 1 17 0;
#X connect 8 2 11 0;
#X connect 8 2 77 0;
#X connect 8 3 10 0;
#X connect 8 3 13 0;
#X connect 8 4 9 0;
#X connect 14 0 15 0;
#X connect 15 0 18 0;
#X connect 16 0 84 0;
#X connect 17 0 16 0;
#X connect 18 0 22 1;
#X connect 19 0 20 0;
#X connect 20 0 21 0;
#X connect 21 0 22 1;
#X connect 22 0 27 0;
#X connect 23 0 24 0;
#X connect 24 0 25 0;
#X connect 25 0 22 1;
#X connect 26 0 22 0;
#X connect 27 0 73 0;
#X connect 30 0 36 1;
#X connect 30 1 37 0;
#X connect 31 0 36 0;
#X connect 32 0 31 1;
#X connect 32 0 40 0;
#X connect 33 0 45 0;
#X connect 34 0 57 0;
#X connect 35 0 51 0;
#X connect 36 0 68 0;
#X connect 37 0 31 0;
#X connect 38 0 42 0;
#X connect 40 0 39 0;
#X connect 42 0 7 2;
#X connect 43 0 47 0;
#X connect 43 1 48 0;
#X connect 45 0 43 0;
#X connect 47 0 1 0;
#X connect 48 0 1 0;
#X connect 49 0 27 1;
#X connect 50 0 52 0;
#X connect 50 1 53 0;
#X connect 51 0 50 0;
#X connect 52 0 49 0;
#X connect 53 0 49 0;
#X connect 54 0 64 0;
#X connect 55 0 54 1;
#X connect 56 0 58 0;
#X connect 56 1 59 0;
#X connect 57 0 56 0;
#X connect 58 0 55 0;
#X connect 59 0 55 0;
#X connect 64 0 60 0;
#X connect 66 0 8 0;
#X connect 66 0 12 0;
#X connect 68 0 38 0;
#X connect 68 1 33 0;
#X connect 68 2 34 0;
#X connect 68 3 35 0;
#X connect 70 0 69 2;
#X connect 72 0 69 0;
#X connect 75 0 74 2;
#X connect 76 0 74 0;
#X connect 77 0 78 0;
#X connect 78 0 79 0;
#X connect 78 1 80 0;
#X connect 82 0 83 0;
#X connect 84 0 85 0;
#X connect 84 1 86 0;
#X connect 84 2 87 0;
#X connect 85 0 14 0;
#X connect 86 0 19 0;
#X connect 87 0 23 0;
#X connect 88 0 32 0;
