#N canvas 121 31 1234 701 16;
#X declare -path ~/Desktop/a_futuro/libs/rj;
#X declare -path ~/Desktop/a_futuro/sinc_abs;
#X declare -path ~/Desktop/a_futuro/libs/DIY2;
#X declare -path ~/Desktop/a_futuro/libs/pdmtl;
#X obj 74 524 mono-delayfb;
#X obj 221 -17 keyname;
#X obj 268 85 spigot;
#X obj 325 3 tgl 40 0 empty empty empty 17 7 0 10 -258113 -1 -1 0 1
;
#X obj 357 187 bng 15 250 50 0 empty empty empty 17 7 0 10 -262144
-1 -1;
#X obj 446 188 bng 15 250 50 0 empty empty empty 17 7 0 10 -262144
-1 -1;
#X obj 535 186 bng 15 250 50 0 empty empty empty 17 7 0 10 -262144
-1 -1;
#X obj 268 116 spigot;
#X obj 268 52 t s b b b b b b b b b;
#X msg 131 460 0 \$1;
#X msg 196 460 1 \$1;
#X msg 131 290 0.8;
#X msg 182 292 0.8;
#X obj 268 184 bng 15 250 50 0 empty empty empty 17 7 0 10 -262144
-1 -1;
#X obj 131 228 sinc-alternate;
#X msg 226 292 0;
#X msg 268 294 0;
#X obj 682 504 playlist wav 200 150 {Helvetica 10 bold} #457782 yellow
black red;
#X obj 131 392 line;
#X msg 131 359 \$1 50;
#X msg 683 351 seek \$1;
#X floatatom 560 401 5 0 0 0 - - -;
#X obj 513 354 f;
#X obj 555 354 + 1;
#X obj 602 346 f;
#X obj 615 457 - 1;
#X obj 357 469 readsf~;
#X obj 446 300 t b b b;
#X msg 479 432 open \$1;
#X msg 357 434 start;
#X obj 535 302 t b b b;
#X obj 357 218 f;
#X obj 357 250 t b b f;
#X obj 325 -25 r um;
#X obj 683 387 loadbang;
#X obj 73 601 s~ um;
#X obj 711 40 r~ um;
#X obj 394 120 switch~;
#X obj 394 95 tgl 15 0 empty empty empty 17 7 0 10 -262144 -1 -1 0
1;
#X text 508 -12 Control_L = liga FX;
#X text 511 18 Space = toca msm sample;
#X text 512 55 Control_R = prox sample;
#X text 512 87 Delete = ant sample;
#X obj 424 500 bng 15 250 50 0 empty empty empty 17 7 0 10 -262144
-1 -1;
#X obj 390 556 spigot;
#X obj 458 517 tgl 30 0 empty empty empty 17 7 0 10 -4034 -1 -1 0 1
;
#X obj 368 594 t b b;
#X text 491 525 loop;
#X text 892 145 -sincopa;
#X text 893 171 -diy;
#X obj 795 306 declare -path ~/Desktop/a_futuro/libs/rj;
#X obj 795 331 declare -path ~/Desktop/a_futuro/sinc_abs;
#X obj 795 356 declare -path ~/Desktop/a_futuro/libs/DIY2;
#X msg 683 416 location /Users/cristianofigueiro/Desktop/samples_digitalia/samplesD
;
#X obj 795 382 declare -path ~/Desktop/a_futuro/libs/pdmtl;
#X obj 26 24 sinc-audioin;
#X obj 268 151 sel Control_L Space ?? .;
#X obj 725 124 autopan;
#X obj 795 68 tgl 15 0 empty empty empty 17 7 0 10 -262144 -1 -1 0
1;
#X connect 0 0 35 0;
#X connect 1 0 7 1;
#X connect 1 1 8 0;
#X connect 2 0 7 0;
#X connect 3 0 2 1;
#X connect 3 0 38 0;
#X connect 4 0 31 0;
#X connect 5 0 27 0;
#X connect 6 0 30 0;
#X connect 7 0 56 0;
#X connect 8 0 2 0;
#X connect 9 0 0 1;
#X connect 10 0 0 1;
#X connect 11 0 19 0;
#X connect 12 0 19 0;
#X connect 13 0 14 1;
#X connect 14 0 11 0;
#X connect 14 0 12 0;
#X connect 14 1 15 0;
#X connect 14 1 16 0;
#X connect 15 0 19 0;
#X connect 16 0 19 0;
#X connect 17 0 28 0;
#X connect 18 0 9 0;
#X connect 18 0 10 0;
#X connect 19 0 18 0;
#X connect 20 0 17 0;
#X connect 21 0 20 0;
#X connect 21 0 23 0;
#X connect 21 0 25 0;
#X connect 21 0 31 1;
#X connect 22 0 21 0;
#X connect 23 0 22 1;
#X connect 24 0 21 0;
#X connect 25 0 24 1;
#X connect 26 0 0 0;
#X connect 26 1 43 0;
#X connect 27 0 29 0;
#X connect 27 1 28 0;
#X connect 27 2 22 0;
#X connect 28 0 26 0;
#X connect 29 0 26 0;
#X connect 30 0 29 0;
#X connect 30 1 28 0;
#X connect 30 2 24 0;
#X connect 31 0 32 0;
#X connect 32 0 29 0;
#X connect 32 1 28 0;
#X connect 32 2 20 0;
#X connect 33 0 3 0;
#X connect 34 0 53 0;
#X connect 36 0 57 0;
#X connect 38 0 37 0;
#X connect 43 0 44 0;
#X connect 44 0 46 0;
#X connect 45 0 44 1;
#X connect 46 0 29 0;
#X connect 46 1 21 0;
#X connect 53 0 17 0;
#X connect 55 0 0 0;
#X connect 56 0 13 0;
#X connect 56 1 4 0;
#X connect 56 2 5 0;
#X connect 56 3 6 0;
#X connect 58 0 57 2;
