#N canvas 78 203 452 434 10;
#X obj 232 -9 keyname;
#X symbolatom 300 25 10 0 0 0 - - -;
#X obj 244 69 spigot;
#X obj 243 105 sel Escape;
#X floatatom 253 180 5 0 0 0 - - -;
#X obj 250 213 sel 0 1 2 3;
#X msg 81 265 1;
#X msg 123 268 0;
#X msg 167 268 1;
#X msg 209 271 0;
#X msg 251 267 1;
#X msg 293 270 0;
#X msg 337 270 1;
#X msg 379 273 0;
#X obj 246 147 counter 3;
#X obj 82 317 tgl 15 0 empty empty empty 17 7 0 10 -262144 -1 -1 0
1;
#X obj 175 323 tgl 15 0 empty empty empty 17 7 0 10 -262144 -1 -1 1
1;
#X obj 270 321 tgl 15 0 empty empty empty 17 7 0 10 -262144 -1 -1 0
1;
#X obj 362 320 tgl 15 0 empty empty empty 17 7 0 10 -262144 -1 -1 0
1;
#X obj 72 356 s um;
#X obj 180 347 s dois;
#X obj 263 350 s tres;
#X obj 349 355 s quatro;
#X obj 16 26 comment 0 36 Courier ? 0 0 0 0 eimas 2013;
#X text 188 378 loop;
#X text 66 383 delay;
#X text 260 378 sintese;
#X text 347 378 granular;
#X connect 0 0 2 1;
#X connect 0 1 1 0;
#X connect 1 0 2 0;
#X connect 2 0 3 0;
#X connect 3 0 14 0;
#X connect 4 0 5 0;
#X connect 5 0 6 0;
#X connect 5 0 9 0;
#X connect 5 0 11 0;
#X connect 5 0 13 0;
#X connect 5 1 7 0;
#X connect 5 1 8 0;
#X connect 5 1 11 0;
#X connect 5 1 13 0;
#X connect 5 2 7 0;
#X connect 5 2 9 0;
#X connect 5 2 10 0;
#X connect 5 2 13 0;
#X connect 5 3 7 0;
#X connect 5 3 9 0;
#X connect 5 3 11 0;
#X connect 5 3 12 0;
#X connect 6 0 15 0;
#X connect 7 0 15 0;
#X connect 8 0 16 0;
#X connect 9 0 16 0;
#X connect 10 0 17 0;
#X connect 11 0 17 0;
#X connect 12 0 18 0;
#X connect 13 0 18 0;
#X connect 14 0 4 0;
#X connect 15 0 19 0;
#X connect 16 0 20 0;
#X connect 17 0 21 0;
#X connect 18 0 22 0;
