#N canvas 139 22 1183 712 10;
#X msg 31 114 open;
#X obj 30 420 soundoutput;
#X msg 89 195 stop;
#X msg 120 241 loop \$1;
#X obj 120 221 tgl 15 0 empty empty empty 17 7 0 10 -262144 -1 -1 1
1;
#X msg 84 171 play 500;
#X obj 518 183 tgl 15 0 empty empty empty 17 7 0 10 -262144 -1 -1 0
1;
#X floatatom 436 471 8 0 0 3 dur_in_smps - -;
#X floatatom 362 471 8 0 0 3 dur_in_ms - -;
#X symbolatom 287 471 10 0 0 3 table_name - -;
#X obj 287 421 unpack s f f f;
#X floatatom 520 471 6 0 0 3 samplerate - -;
#X obj 362 520 s \$0-duration;
#X obj 578 150 r \$0-duration;
#X obj 578 177 / 32;
#X obj 201 438 bng 15 50 50 0 empty empty bang_on_start 0 25 1 10 -262144
-1 -1;
#X msg 71 146 play;
#X text 114 146 all from start;
#X text 155 171 play all starting 500 ms into sample;
#X text 156 50 sample player with looping and file storage.;
#X text 77 115 open a file;
#X text 179 242 loop file;
#X text 499 84 "playdiv <divs> <part> <duration in parts>" divides
the file into as many equal length parts as the <divs> number following
it specifies. Then it start playing part <part> and stops after <duration>
parts.;
#X msg 121 270 sr 22050;
#X text 177 320 adjust fade-in time (default 2ms);
#X text 155 83 Args: <NAME> <soundfile to autoload>;
#X obj 658 255 hradio 15 1 0 8 empty empty empty 0 -8 0 10 -262144
-1 -1 5;
#X msg 658 283 playdiv 16 \$1 0.5;
#X text 191 270 set samplerate of file (default 22050 Hz);
#X text 533 73 The "playdiv" message:;
#X text 399 420 sample file info;
#X msg 123 292 sr 44100;
#X obj 82 52 s_looper;
#X obj 31 375 s_looper \$0-mysample filenotfound.wav;
#X msg 124 341 info;
#X text 175 341 print info to last outlet;
#X floatatom 690 138 5 0 0 0 - - -;
#X obj 654 194 pack f f;
#X msg 637 223 playdiv 4 \$1 \$2;
#X obj 688 171 bng 15 250 50 0 empty empty empty 17 7 0 10 -262144
-1 -1;
#X obj 743 134 hsl 128 15 0 1 0 0 empty empty empty -2 -8 0 10 -262144
-1 -1 12700 1;
#X obj 466 281 random 8;
#X obj 518 206 metro 500;
#X msg 466 339 playdiv 8 \$1 1;
#X msg 124 320 fade 3000;
#X msg 645 326 open;
#X obj 644 632 soundoutput;
#X msg 703 407 stop;
#X msg 734 453 loop \$1;
#X obj 734 433 tgl 15 0 empty empty empty 17 7 0 10 -262144 -1 -1 0
1;
#X msg 698 383 play 500;
#X obj 815 650 bng 15 50 50 0 empty empty bang_on_start 0 25 1 10 -262144
-1 -1;
#X msg 685 358 play;
#X text 728 358 all from start;
#X text 769 383 play all starting 500 ms into sample;
#X text 691 327 open a file;
#X text 793 454 loop file;
#X msg 735 482 sr 22050;
#X text 791 532 adjust fade-in time (default 2ms);
#X text 805 482 set samplerate of file (default 22050 Hz);
#X msg 737 504 sr 44100;
#X msg 738 553 info;
#X text 789 553 print info to last outlet;
#X msg 738 532 fade 3000;
#X obj 645 587 s_looper \$0-mysample2 filenotfound.wav;
#X msg 545 424 playdiv 4 \$1 1;
#X msg 970 -16 open;
#X obj 969 290 soundoutput;
#X msg 1028 65 stop;
#X msg 1059 111 loop \$1;
#X obj 1059 91 tgl 15 0 empty empty empty 17 7 0 10 -262144 -1 -1 0
1;
#X msg 1023 41 play 500;
#X obj 1140 308 bng 15 50 50 0 empty empty bang_on_start 0 25 1 10
-262144 -1 -1;
#X msg 1010 16 play;
#X text 1053 16 all from start;
#X text 1094 41 play all starting 500 ms into sample;
#X text 1016 -15 open a file;
#X text 1118 112 loop file;
#X msg 1060 140 sr 22050;
#X text 1116 190 adjust fade-in time (default 2ms);
#X text 1130 140 set samplerate of file (default 22050 Hz);
#X msg 1062 162 sr 44100;
#X msg 1063 211 info;
#X text 1114 211 print info to last outlet;
#X msg 1063 190 fade 3000;
#X msg 870 82 playdiv 4 \$1 1;
#X obj 870 24 random 8;
#X obj 970 245 s_looper \$0-mysample3 filenotfound.wav;
#X obj 545 366 random 6;
#X connect 0 0 33 0;
#X connect 2 0 33 0;
#X connect 3 0 33 0;
#X connect 4 0 3 0;
#X connect 5 0 33 0;
#X connect 6 0 42 0;
#X connect 8 0 12 0;
#X connect 10 0 9 0;
#X connect 10 1 8 0;
#X connect 10 2 7 0;
#X connect 10 3 11 0;
#X connect 13 0 14 0;
#X connect 14 0 42 1;
#X connect 16 0 33 0;
#X connect 23 0 33 0;
#X connect 26 0 27 0;
#X connect 27 0 33 0;
#X connect 31 0 33 0;
#X connect 33 0 1 0;
#X connect 33 1 1 1;
#X connect 33 2 15 0;
#X connect 33 3 10 0;
#X connect 34 0 33 0;
#X connect 36 0 37 0;
#X connect 37 0 38 0;
#X connect 38 0 33 0;
#X connect 39 0 37 0;
#X connect 40 0 37 1;
#X connect 40 0 39 0;
#X connect 41 0 43 0;
#X connect 42 0 41 0;
#X connect 42 0 86 0;
#X connect 42 0 88 0;
#X connect 43 0 33 0;
#X connect 44 0 33 0;
#X connect 45 0 64 0;
#X connect 47 0 64 0;
#X connect 48 0 64 0;
#X connect 49 0 48 0;
#X connect 50 0 64 0;
#X connect 52 0 64 0;
#X connect 57 0 64 0;
#X connect 60 0 64 0;
#X connect 61 0 64 0;
#X connect 63 0 64 0;
#X connect 64 0 46 0;
#X connect 64 1 46 1;
#X connect 64 2 51 0;
#X connect 65 0 64 0;
#X connect 66 0 87 0;
#X connect 68 0 87 0;
#X connect 69 0 87 0;
#X connect 70 0 69 0;
#X connect 71 0 87 0;
#X connect 73 0 87 0;
#X connect 78 0 87 0;
#X connect 81 0 87 0;
#X connect 82 0 87 0;
#X connect 84 0 87 0;
#X connect 85 0 87 0;
#X connect 86 0 85 0;
#X connect 87 0 67 0;
#X connect 87 1 67 1;
#X connect 87 2 72 0;
#X connect 88 0 65 0;
