#N canvas 117 22 581 326 10;
#N canvas 912 22 328 513 receivers 1;
#X obj 46 134 r rec1;
#X obj 43 168 r vol1;
#X obj 124 137 r rec2;
#X obj 119 164 r vol2;
#X obj 189 138 r rec3;
#X obj 183 165 r vol3;
#X obj 259 137 r rec4;
#X obj 248 166 r vol4;
#X obj 115 95 r bpm_gui;
#X obj 159 192 r vol_global;
#X obj 2 318 r ligafx1;
#X obj 2 353 r volfx1;
#X obj 79 351 r delayfx1;
#X obj 72 316 r feedfx1;
#X obj 144 316 r ligafx2;
#X obj 257 515 r pd_path;
#X obj 33 505 r recgeral1;
#X obj 162 514 r play1;
#X obj 26 537 r playvolume1;
#X obj 215 321 r feedfx2;
#X obj 220 348 r delayfx2;
#X obj 153 349 r volfx2;
#X restore 159 32 pd receivers;
#N canvas 242 22 662 513 tab1 0;
#X obj 34 276 e_repeater repea1;
#X obj 155 275 e_repeater repea2;
#X obj 319 47 m_beat2ms;
#X floatatom 270 132 5 0 0 0 - - -;
#X floatatom 343 -28 5 0 0 0 - - -;
#X text 388 -31 bpm;
#X obj 319 99 * 2;
#X floatatom 319 132 5 0 0 0 - - -;
#X floatatom 367 132 5 0 0 0 - - -;
#X floatatom 417 131 5 0 0 0 - - -;
#X msg 319 24 1;
#X obj 112 229 f;
#X obj 252 225 f;
#X obj 373 265 f;
#X obj 546 263 f;
#X obj 343 -3 t b f;
#X obj 149 0 adc~;
#X obj 110 192 bng 15 250 50 0 empty empty empty 17 7 0 10 -262144
-1 -1;
#X obj 246 181 bng 15 250 50 0 empty empty empty 17 7 0 10 -262144
-1 -1;
#X obj 362 219 bng 15 250 50 0 empty empty empty 17 7 0 10 -262144
-1 -1;
#X obj 523 221 bng 15 250 50 0 empty empty empty 17 7 0 10 -262144
-1 -1;
#X obj 30 357 *~;
#X obj 53 303 hsl 100 15 0 1 0 0 empty empty empty -2 -8 0 10 -262144
-1 -1 0 1;
#X obj 156 357 *~;
#X obj 183 301 hsl 100 15 0 1 0 0 empty empty empty -2 -8 0 10 -262144
-1 -1 0 1;
#X obj 292 373 *~;
#X obj 314 321 hsl 100 15 0 1 0 0 empty empty empty -2 -8 0 10 -262144
-1 -1 0 1;
#X obj 452 363 *~;
#X obj 484 316 hsl 100 15 0 1 0 0 empty empty empty -2 -8 0 10 -262144
-1 -1 0 1;
#X obj 213 411 +~;
#X obj 234 500 *~;
#X obj 273 460 hsl 100 15 0 1 0 0 empty empty empty -2 -8 0 10 -262144
-1 -1 0 1;
#X obj 239 538 dac~;
#X obj 367 98 * 2.5;
#X obj 417 99 * 3;
#X obj 110 166 r rec1;
#X obj 63 246 r vol1;
#X obj 255 161 r rec2;
#X obj 175 233 r vol2;
#X obj 370 185 r rec3;
#X obj 299 255 r vol3;
#X obj 520 194 r rec4;
#X obj 456 251 r vol4;
#X obj 344 -56 r bpm_gui;
#X obj 295 420 r vol_global;
#X obj 346 543 outlet~;
#X obj 42 334 escalando 0 1 0 0.6;
#X obj 174 331 escalando 0 1 0 0.6;
#X obj 311 344 escalando 0 1 0 0.6;
#X obj 467 338 escalando 0 1 0 0.6;
#X obj 291 299 e_repeater repea3;
#X obj 447 291 e_repeater repea4;
#X connect 0 0 21 0;
#X connect 1 0 23 0;
#X connect 2 0 3 0;
#X connect 2 0 6 0;
#X connect 2 0 33 0;
#X connect 2 0 34 0;
#X connect 3 0 11 1;
#X connect 4 0 15 0;
#X connect 6 0 7 0;
#X connect 7 0 12 1;
#X connect 8 0 13 1;
#X connect 9 0 14 1;
#X connect 10 0 2 0;
#X connect 11 0 0 1;
#X connect 12 0 1 1;
#X connect 13 0 50 1;
#X connect 14 0 51 1;
#X connect 15 0 10 0;
#X connect 15 1 2 1;
#X connect 16 0 0 0;
#X connect 16 0 1 0;
#X connect 16 0 50 0;
#X connect 16 0 51 0;
#X connect 17 0 11 0;
#X connect 18 0 12 0;
#X connect 19 0 13 0;
#X connect 20 0 14 0;
#X connect 21 0 29 0;
#X connect 22 0 46 0;
#X connect 23 0 29 0;
#X connect 24 0 47 0;
#X connect 25 0 29 1;
#X connect 26 0 48 0;
#X connect 27 0 29 1;
#X connect 28 0 49 0;
#X connect 29 0 30 0;
#X connect 30 0 32 0;
#X connect 30 0 32 1;
#X connect 30 0 45 0;
#X connect 31 0 30 1;
#X connect 33 0 8 0;
#X connect 34 0 9 0;
#X connect 35 0 17 0;
#X connect 36 0 22 0;
#X connect 37 0 18 0;
#X connect 38 0 24 0;
#X connect 39 0 19 0;
#X connect 40 0 26 0;
#X connect 41 0 20 0;
#X connect 42 0 28 0;
#X connect 43 0 4 0;
#X connect 44 0 31 0;
#X connect 46 0 21 1;
#X connect 47 0 23 1;
#X connect 48 0 25 1;
#X connect 49 0 27 1;
#X connect 50 0 25 0;
#X connect 51 0 27 0;
#X restore 150 84 pd tab1;
#N canvas 219 43 685 513 tab2 0;
#X obj 383 301 mono-specdelay /key;
#X obj 71 316 mono-delayfb /key;
#X obj 55 484 dac~;
#X obj 1 44 adc~;
#X obj 28 136 *~;
#X obj 54 33 tgl 15 0 empty empty empty 17 7 0 10 -262144 -1 -1 0 1
;
#X obj 402 474 dac~;
#X obj 344 66 adc~;
#X obj 373 167 *~;
#X obj 47 11 r ligafx1;
#X obj 66 162 r volfx1;
#X msg 78 271 2 \$1;
#X obj 69 204 hsl 128 15 0 1 0 0 empty empty empty -2 -8 0 10 -262144
-1 -1 0 1;
#X obj 167 224 hsl 128 15 0 1 0 0 empty empty empty -2 -8 0 10 -262144
-1 -1 0 1;
#X msg 172 269 0 \$1;
#X obj 164 160 r delayfx1;
#X obj 156 83 hsl 128 15 0 1 0 0 empty empty empty -2 -8 0 10 -262144
-1 -1 0 1;
#X obj 153 41 r feedfx1;
#X msg 153 120 1 \$1;
#X obj 419 31 r ligafx2;
#X obj 419 214 hsl 128 15 0 1 0 0 empty empty empty -2 -8 0 10 -262144
-1 -1 0 1;
#X obj 539 241 hsl 128 15 0 1 0 0 empty empty empty -2 -8 0 10 -262144
-1 -1 0 1;
#X msg 542 269 0 \$1;
#X obj 506 93 hsl 128 15 0 1 0 0 empty empty empty -2 -8 0 10 -262144
-1 -1 0 1;
#X msg 414 272 8 \$1;
#X msg 503 130 3 \$1;
#X msg 426 431 6 1;
#X msg 463 435 7 1;
#X msg 499 434 4 1;
#X msg 531 443 2 1;
#X msg 453 466 5 1;
#X obj 514 399 loadbang;
#X obj 212 532 outlet~;
#X obj 503 51 r feedfx2;
#X obj 416 172 r volfx2;
#X obj 514 170 r delayfx2;
#X msg 34 87 0.8 100;
#X obj 36 111 line~;
#X obj 52 59 sel 1;
#X msg 89 86 0 100;
#X obj 420 56 tgl 15 0 empty empty empty 17 7 0 10 -262144 -1 -1 0
1;
#X msg 400 110 0.8 100;
#X obj 402 134 line~;
#X obj 418 82 sel 1;
#X msg 455 109 0 100;
#X obj 5 73 hip~ 10;
#X obj 344 106 hip~ 10;
#X obj 69 246 escalando 0 1 0 0.2;
#X obj 394 245 escalando 0 1 0 0.3;
#X connect 0 0 6 0;
#X connect 0 0 6 1;
#X connect 0 0 32 0;
#X connect 1 0 2 0;
#X connect 1 0 2 1;
#X connect 1 0 32 0;
#X connect 3 0 45 0;
#X connect 4 0 1 0;
#X connect 5 0 38 0;
#X connect 7 0 46 0;
#X connect 8 0 0 0;
#X connect 9 0 5 0;
#X connect 10 0 12 0;
#X connect 11 0 1 1;
#X connect 12 0 47 0;
#X connect 13 0 14 0;
#X connect 14 0 1 1;
#X connect 15 0 13 0;
#X connect 16 0 18 0;
#X connect 17 0 16 0;
#X connect 18 0 1 1;
#X connect 19 0 40 0;
#X connect 20 0 48 0;
#X connect 21 0 22 0;
#X connect 22 0 0 1;
#X connect 23 0 25 0;
#X connect 24 0 0 1;
#X connect 25 0 0 1;
#X connect 26 0 0 1;
#X connect 27 0 0 1;
#X connect 28 0 0 1;
#X connect 29 0 0 1;
#X connect 30 0 0 1;
#X connect 31 0 26 0;
#X connect 31 0 30 0;
#X connect 31 0 27 0;
#X connect 31 0 28 0;
#X connect 31 0 29 0;
#X connect 33 0 23 0;
#X connect 34 0 20 0;
#X connect 35 0 21 0;
#X connect 36 0 37 0;
#X connect 37 0 4 1;
#X connect 38 0 36 0;
#X connect 38 1 39 0;
#X connect 39 0 37 0;
#X connect 40 0 43 0;
#X connect 41 0 42 0;
#X connect 42 0 8 1;
#X connect 43 0 41 0;
#X connect 43 1 44 0;
#X connect 44 0 42 0;
#X connect 45 0 4 0;
#X connect 46 0 8 0;
#X connect 47 0 11 0;
#X connect 48 0 24 0;
#X restore 296 84 pd tab2;
#N canvas 326 241 692 460 rec 1;
#X obj 84 348 writesf~;
#X msg 141 246 start;
#X obj 153 157 sel 1;
#X msg 266 287 stop;
#X obj 239 235 t b b;
#X obj 140 107 change;
#X obj 213 109 r pd_path;
#X msg 182 276 open \$1;
#X obj 184 243 symbol;
#X obj 153 187 t b b b;
#X obj 213 140 makefilename %srec.wav;
#X obj 39 50 inlet~;
#X obj 396 279 readsf~;
#X obj 391 124 t b b;
#X msg 374 196 start;
#X msg 452 231 open \$1;
#X obj 493 128 r pd_path;
#X obj 453 193 symbol;
#X obj 403 341 *~;
#X obj 403 383 dac~;
#X obj 391 54 change;
#X obj 501 318 hsl 128 15 0 1 0 0 empty vol_geral empty -2 -8 0 10
-262144 -1 -1 0 1;
#X obj 391 81 sel 1;
#X msg 448 125 stop;
#X obj 140 79 r recgeral1;
#X obj 384 26 r play1;
#X obj 489 261 r playvolume1;
#X obj 493 159 makefilename %srec.wav;
#X connect 1 0 0 0;
#X connect 2 0 9 0;
#X connect 2 1 4 0;
#X connect 3 0 0 0;
#X connect 4 1 3 0;
#X connect 5 0 2 0;
#X connect 6 0 10 0;
#X connect 7 0 0 0;
#X connect 8 0 7 0;
#X connect 9 0 1 0;
#X connect 9 2 8 0;
#X connect 10 0 8 1;
#X connect 11 0 0 0;
#X connect 12 0 18 0;
#X connect 12 1 13 0;
#X connect 13 0 14 0;
#X connect 13 1 17 0;
#X connect 14 0 12 0;
#X connect 15 0 12 0;
#X connect 16 0 27 0;
#X connect 17 0 15 0;
#X connect 18 0 19 0;
#X connect 18 0 19 1;
#X connect 20 0 22 0;
#X connect 21 0 18 1;
#X connect 22 0 13 0;
#X connect 22 1 23 0;
#X connect 23 0 12 0;
#X connect 24 0 5 0;
#X connect 25 0 20 0;
#X connect 26 0 21 0;
#X connect 27 0 17 1;
#X restore 194 190 pd rec;
#X obj 194 148 +~;
#X connect 1 0 4 0;
#X connect 2 0 4 1;
#X connect 4 0 3 0;
