#N canvas 38 22 1109 664 10;
#N canvas 67 49 984 532 (subpatch) 0;
#X array nota-base 8 float 3;
#A 0 60 60 60 60 60 60 60 60;
#X coords 0 127 8 0 600 140 1 0 0;
#X restore 91 61 graph;
#N canvas 0 22 450 300 (subpatch) 0;
#X array nota-single 8 float 3;
#A 0 11.4857 10.4571 8.31429 6.6 4.97143 3.42857 2.05714 0.771423;
#X coords 0 12 8 0 600 140 1 0 0;
#X restore 91 212 graph;
#N canvas 0 22 450 300 (subpatch) 0;
#X array velocity 8 float 3;
#A 0 19.0495 96.1586 15.4209 106.137 14.5137 9.97788 14.5137 15.4209
;
#X coords 0 127 8 0 600 140 1 0 0;
#X restore 91 368 graph;
#N canvas 0 22 450 300 (subpatch) 0;
#X array duration 8 float 3;
#A 0 128.591 142.876 185.731 314.298 328.583 300.012 200.016 171.446
;
#X coords 0 2000 8 0 600 140 1 0 0;
#X restore 91 525 graph;
#X floatatom 767 559 5 0 0 0 - - -;
#X obj 817 640 soundoutput;
#X floatatom 795 387 5 0 0 0 - - -;
#X obj 818 579 pack 0 0;
#X obj 795 413 m_majorscale 60;
#X obj 818 606 u_makepoly 8 1 s_rhodey \$0-piano;
#X obj 818 554 makenote 20 1000;
#X floatatom 968 337 5 0 0 0 - - -;
#X obj 541 56 cnv 9 4 610 canvaspos meucanvas meucanvas 20 12 0 14
-258113 -66577 0;
#N canvas 672 160 495 480 canvas 0;
#X obj 262 365 f;
#X msg 242 308 bang;
#X floatatom 282 265 3 20 600 0 - - -;
#X floatatom 324 286 3 0 200 0 - - -;
#X obj 262 388 pack 0 0;
#X text 309 219 x-position;
#X text 351 303 y-position;
#X msg 263 413 \; meucanvas pos \$1 \$2;
#X obj 127 243 r canvaspos;
#X obj 130 273 unpack f f;
#X floatatom 133 319 5 0 0 0 - - -;
#X floatatom 180 313 5 0 0 0 - - -;
#X obj 87 336 bng 15 250 50 0 empty empty empty 17 7 0 10 -262144 -1
-1;
#X obj 278 301 t b f;
#X obj 314 326 t b f;
#X msg 325 262 56;
#X obj 280 235 + 91;
#X floatatom 284 204 5 0 0 0 - - -;
#X msg 82 364 \; meucanvas get_pos;
#X text 47 117 sincronizar melhor o canvas;
#X obj 380 196 loadbang;
#X obj 215 40 inlet;
#X obj 339 38 inlet;
#X obj 219 160 * 75;
#X connect 0 0 4 0;
#X connect 1 0 0 0;
#X connect 2 0 13 0;
#X connect 3 0 14 0;
#X connect 4 0 7 0;
#X connect 8 0 9 0;
#X connect 9 0 10 0;
#X connect 9 1 11 0;
#X connect 12 0 18 0;
#X connect 13 0 0 0;
#X connect 13 1 0 1;
#X connect 14 0 0 0;
#X connect 14 1 4 1;
#X connect 15 0 3 0;
#X connect 16 0 2 0;
#X connect 17 0 16 0;
#X connect 20 0 15 0;
#X connect 21 0 23 0;
#X connect 22 0 23 0;
#X connect 23 0 17 0;
#X restore 874 196 pd canvas;
#X floatatom 806 113 5 0 0 0 - - -;
#X obj 767 -5 tgl 15 0 empty empty on/off 17 7 1 10 -262144 -1 -1 0
1;
#X msg 826 26 hold \$1;
#X obj 826 -5 tgl 15 0 empty empty hold 17 7 1 10 -262144 -1 -1 0 1
;
#X msg 899 15 set \$1;
#X obj 928 -38 hsl 128 15 0 100 0 0 empty empty empty -2 -8 0 10 -262144
-1 -1 0 1;
#X obj 970 305 tabread nota-base;
#X obj 794 354 tabread nota-single;
#X floatatom 863 528 5 0 0 0 - - -;
#X floatatom 970 528 5 0 0 0 - - -;
#X obj 863 503 tabread velocity;
#X obj 970 503 tabread duration;
#X obj 777 229 s c;
#X obj 799 326 r c;
#X obj 970 269 r c;
#X obj 867 463 r c;
#X obj 989 463 r c;
#X obj 399 38 tabwrite nota-base;
#X obj 471 -53 until;
#X msg 470 -81 100;
#X obj 470 -28 f;
#X obj 500 -28 + 1;
#X obj 467 3 t b f;
#X obj 783 172 change;
#X obj 806 81 c_multimetro 8 200;
#X obj 935 373 int;
#X floatatom 920 410 5 0 0 0 - - -;
#X msg 566 -52 80;
#X msg 567 -15 60;
#X msg 401 15 70;
#X msg 528 -76 0;
#X msg 128 -20 \; nota-base const \$1 \;;
#X msg 117 -62 60;
#X msg 160 -61 70;
#X msg 197 -55 80;
#X connect 6 0 8 0;
#X connect 7 0 9 0;
#X connect 8 0 4 0;
#X connect 8 0 10 0;
#X connect 9 0 5 0;
#X connect 9 0 5 1;
#X connect 10 0 7 0;
#X connect 10 1 7 1;
#X connect 11 0 39 0;
#X connect 14 0 13 0;
#X connect 14 0 37 0;
#X connect 15 0 38 0;
#X connect 16 0 38 0;
#X connect 17 0 16 0;
#X connect 18 0 38 0;
#X connect 19 0 18 0;
#X connect 19 0 13 1;
#X connect 19 0 26 0;
#X connect 20 0 11 0;
#X connect 21 0 6 0;
#X connect 22 0 10 1;
#X connect 23 0 10 2;
#X connect 24 0 22 0;
#X connect 25 0 23 0;
#X connect 27 0 21 0;
#X connect 28 0 20 0;
#X connect 29 0 24 0;
#X connect 30 0 25 0;
#X connect 32 0 34 0;
#X connect 33 0 32 0;
#X connect 34 0 35 0;
#X connect 34 0 36 0;
#X connect 35 0 34 1;
#X connect 36 0 43 0;
#X connect 36 1 31 1;
#X connect 37 0 26 0;
#X connect 38 0 14 0;
#X connect 39 0 8 1;
#X connect 39 0 40 0;
#X connect 41 0 32 0;
#X connect 42 0 32 0;
#X connect 43 0 31 0;
#X connect 44 0 35 0;
#X connect 46 0 45 0;
#X connect 47 0 45 0;
#X connect 48 0 45 0;
